<svg xmlns="http://www.w3.org/2000/svg" xmlns:xlink="http://www.w3.org/1999/xlink" width="500" zoomAndPan="magnify" viewBox="0 0 375 374.999991" height="500" preserveAspectRatio="xMidYMid meet" version="1.0"><defs><g/></defs><g fill="#000000" fill-opacity="1"><g transform="translate(65.143679, 196.731901)"><g><path d="M 143.421875 2.203125 C 143.503906 2.203125 143.597656 2.203125 143.703125 2.203125 C 143.910156 2.203125 144.125 2.222656 144.34375 2.265625 C 144.5625 2.316406 144.757812 2.4375 144.9375 2.625 C 144.988281 2.675781 145.035156 2.738281 145.078125 2.8125 C 145.117188 2.894531 145.140625 2.984375 145.140625 3.078125 C 145.109375 3.140625 145.066406 3.207031 145.015625 3.28125 C 144.960938 3.363281 144.910156 3.425781 144.859375 3.46875 C 144.609375 3.519531 144.347656 3.53125 144.078125 3.5 C 143.953125 3.5 143.8125 3.5 143.65625 3.5 C 142.101562 3.40625 140.554688 3.296875 139.015625 3.171875 C 136.160156 2.953125 133.3125 2.753906 130.46875 2.578125 C 118.726562 1.828125 107.132812 1.421875 95.6875 1.359375 C 84.25 1.296875 72.644531 1.457031 60.875 1.84375 C 59.644531 1.863281 58.410156 1.9375 57.171875 2.0625 C 56.003906 2.15625 54.828125 2.210938 53.640625 2.234375 C 52.503906 2.273438 51.609375 2.773438 50.953125 3.734375 C 48.046875 7.609375 44.890625 11.273438 41.484375 14.734375 C 39.085938 17.179688 36.59375 19.378906 34 21.328125 C 31.40625 23.273438 28.675781 24.820312 25.8125 25.96875 C 22.945312 27.125 19.957031 27.691406 16.84375 27.671875 C 13.738281 27.660156 10.492188 26.894531 7.109375 25.375 C 5.535156 24.695312 4.144531 23.71875 2.9375 22.4375 C 0.976562 20.21875 0.757812 17.816406 2.28125 15.234375 C 3.363281 13.578125 4.753906 12.207031 6.453125 11.125 C 9.035156 9.425781 12.039062 7.984375 15.46875 6.796875 C 18.90625 5.617188 22.535156 4.660156 26.359375 3.921875 C 30.179688 3.179688 33.9375 2.59375 37.625 2.15625 C 41.3125 1.71875 44.671875 1.394531 47.703125 1.1875 C 48.941406 1.082031 49.898438 0.539062 50.578125 -0.4375 C 53.085938 -4.070312 55.757812 -8.328125 58.59375 -13.203125 C 61.425781 -18.078125 64.148438 -23.207031 66.765625 -28.59375 C 69.390625 -33.976562 71.644531 -39.21875 73.53125 -44.3125 C 75.414062 -49.40625 76.679688 -53.992188 77.328125 -58.078125 C 77.515625 -59.316406 77.472656 -60.554688 77.203125 -61.796875 C 76.691406 -63.773438 75.453125 -64.90625 73.484375 -65.1875 C 73.203125 -65.21875 72.9375 -65.234375 72.6875 -65.234375 C 72.09375 -65.234375 71.507812 -65.15625 70.9375 -65 C 68.382812 -64.476562 65.234375 -63.316406 61.484375 -61.515625 C 57.742188 -59.722656 53.816406 -57.492188 49.703125 -54.828125 C 45.585938 -52.160156 41.644531 -49.238281 37.875 -46.0625 C 34.113281 -42.894531 30.929688 -39.671875 28.328125 -36.390625 C 25.722656 -33.109375 24.070312 -29.9375 23.375 -26.875 C 22.8125 -24.238281 23.738281 -22.316406 26.15625 -21.109375 C 28.09375 -20.253906 30.160156 -19.878906 32.359375 -19.984375 C 34.566406 -20.085938 36.679688 -20.34375 38.703125 -20.75 C 39.929688 -21.019531 41.164062 -21.15625 42.40625 -21.15625 C 42.925781 -21.15625 43.4375 -21.125 43.9375 -21.0625 C 44.0625 -21.0625 44.175781 -21.023438 44.28125 -20.953125 C 44.394531 -20.878906 44.429688 -20.75 44.390625 -20.5625 C 44.335938 -20.25 44.171875 -20.082031 43.890625 -20.0625 C 42.179688 -19.90625 40.460938 -19.6875 38.734375 -19.40625 C 36.628906 -19.019531 34.515625 -18.765625 32.390625 -18.640625 C 30.273438 -18.523438 28.179688 -18.742188 26.109375 -19.296875 C 25.054688 -19.578125 24.078125 -20.015625 23.171875 -20.609375 C 21.003906 -22.054688 20.128906 -24.066406 20.546875 -26.640625 C 21.160156 -29.921875 22.828125 -33.328125 25.546875 -36.859375 C 28.273438 -40.390625 31.625 -43.828125 35.59375 -47.171875 C 39.570312 -50.515625 43.765625 -53.578125 48.171875 -56.359375 C 52.585938 -59.148438 56.796875 -61.445312 60.796875 -63.25 C 64.796875 -65.0625 68.175781 -66.1875 70.9375 -66.625 C 71.601562 -66.75 72.273438 -66.796875 72.953125 -66.765625 C 74.140625 -66.796875 75.289062 -66.644531 76.40625 -66.3125 C 78.4375 -65.664062 79.722656 -64.285156 80.265625 -62.171875 C 80.722656 -59.898438 80.441406 -56.804688 79.421875 -52.890625 C 78.398438 -48.984375 76.894531 -44.628906 74.90625 -39.828125 C 72.925781 -35.035156 70.722656 -30.210938 68.296875 -25.359375 C 65.867188 -20.515625 63.5 -16.054688 61.1875 -11.984375 C 58.882812 -7.921875 56.894531 -4.648438 55.21875 -2.171875 C 54.757812 -1.515625 54.3125 -0.847656 53.875 -0.171875 C 53.789062 0.015625 53.789062 0.179688 53.875 0.328125 C 53.96875 0.484375 54.125 0.5625 54.34375 0.5625 L 54.375 0.5625 C 54.9375 0.5625 55.5 0.550781 56.0625 0.53125 C 57.695312 0.46875 59.335938 0.390625 60.984375 0.296875 C 64.453125 0.140625 67.921875 0.015625 71.390625 -0.078125 C 95.441406 -0.785156 119.453125 -0.0234375 143.421875 2.203125 Z M 45.46875 6.25 C 45.625 6.050781 45.796875 5.847656 45.984375 5.640625 C 46.285156 5.273438 46.597656 4.875 46.921875 4.4375 C 47.253906 4 47.546875 3.484375 47.796875 2.890625 C 47.515625 2.890625 47.253906 2.890625 47.015625 2.890625 C 46.910156 2.890625 46.8125 2.890625 46.71875 2.890625 C 46.601562 2.890625 46.46875 2.890625 46.3125 2.890625 C 45.3125 3.015625 44.304688 3.140625 43.296875 3.265625 C 41.984375 3.421875 40.679688 3.578125 39.390625 3.734375 C 36.378906 4.015625 32.890625 4.515625 28.921875 5.234375 C 24.960938 5.960938 21.078125 6.953125 17.265625 8.203125 C 13.460938 9.460938 10.335938 11.035156 7.890625 12.921875 C 7.066406 13.578125 6.304688 14.320312 5.609375 15.15625 C 3.566406 17.726562 3.773438 20.097656 6.234375 22.265625 C 9.046875 24.546875 11.945312 25.796875 14.9375 26.015625 C 17.925781 26.234375 20.894531 25.707031 23.84375 24.4375 C 26.800781 23.175781 29.628906 21.484375 32.328125 19.359375 C 35.023438 17.234375 37.492188 15 39.734375 12.65625 C 41.984375 10.320312 43.894531 8.1875 45.46875 6.25 Z M 45.46875 6.25 "/></g></g></g><g fill="#000000" fill-opacity="1"><g transform="translate(134.556987, 196.731901)"><g/></g></g><g fill="#000b05" fill-opacity="1"><g transform="translate(127.785464, 190.124988)"><g><path d="M 1.171875 -7.15625 L 4.078125 -7.15625 C 4.835938 -7.15625 5.503906 -7.003906 6.078125 -6.703125 C 6.660156 -6.398438 7.113281 -5.976562 7.4375 -5.4375 C 7.757812 -4.894531 7.921875 -4.273438 7.921875 -3.578125 C 7.921875 -2.878906 7.757812 -2.257812 7.4375 -1.71875 C 7.113281 -1.175781 6.660156 -0.753906 6.078125 -0.453125 C 5.503906 -0.148438 4.835938 0 4.078125 0 L 1.171875 0 Z M 4.046875 -0.65625 C 4.671875 -0.65625 5.21875 -0.78125 5.6875 -1.03125 C 6.15625 -1.28125 6.519531 -1.625 6.78125 -2.0625 C 7.039062 -2.5 7.171875 -3.003906 7.171875 -3.578125 C 7.171875 -4.148438 7.039062 -4.65625 6.78125 -5.09375 C 6.519531 -5.539062 6.15625 -5.890625 5.6875 -6.140625 C 5.21875 -6.390625 4.671875 -6.515625 4.046875 -6.515625 L 1.921875 -6.515625 L 1.921875 -0.65625 Z M 4.046875 -0.65625 "/></g></g></g><g fill="#000b05" fill-opacity="1"><g transform="translate(143.559297, 190.124988)"><g><path d="M 6.234375 -0.65625 L 6.234375 0 L 1.171875 0 L 1.171875 -7.15625 L 6.078125 -7.15625 L 6.078125 -6.515625 L 1.921875 -6.515625 L 1.921875 -3.953125 L 5.625 -3.953125 L 5.625 -3.3125 L 1.921875 -3.3125 L 1.921875 -0.65625 Z M 6.234375 -0.65625 "/></g></g></g><g fill="#000b05" fill-opacity="1"><g transform="translate(157.726951, 190.124988)"><g><path d="M 7.125 -7.15625 L 3.953125 0 L 3.203125 0 L 0.03125 -7.15625 L 0.84375 -7.15625 L 3.59375 -0.9375 L 6.359375 -7.15625 Z M 7.125 -7.15625 "/></g></g></g><g fill="#000b05" fill-opacity="1"><g transform="translate(172.191283, 190.124988)"><g><path d="M 6.234375 -0.65625 L 6.234375 0 L 1.171875 0 L 1.171875 -7.15625 L 6.078125 -7.15625 L 6.078125 -6.515625 L 1.921875 -6.515625 L 1.921875 -3.953125 L 5.625 -3.953125 L 5.625 -3.3125 L 1.921875 -3.3125 L 1.921875 -0.65625 Z M 6.234375 -0.65625 "/></g></g></g><g fill="#000b05" fill-opacity="1"><g transform="translate(186.358936, 190.124988)"><g><path d="M 1.171875 -7.15625 L 1.921875 -7.15625 L 1.921875 -0.65625 L 5.9375 -0.65625 L 5.9375 0 L 1.171875 0 Z M 1.171875 -7.15625 "/></g></g></g><g fill="#000b05" fill-opacity="1"><g transform="translate(199.708143, 190.124988)"><g><path d="M 4.296875 0.0625 C 3.585938 0.0625 2.941406 -0.09375 2.359375 -0.40625 C 1.785156 -0.726562 1.335938 -1.164062 1.015625 -1.71875 C 0.691406 -2.269531 0.53125 -2.890625 0.53125 -3.578125 C 0.53125 -4.265625 0.691406 -4.882812 1.015625 -5.4375 C 1.335938 -6 1.785156 -6.4375 2.359375 -6.75 C 2.941406 -7.0625 3.585938 -7.21875 4.296875 -7.21875 C 5.003906 -7.21875 5.644531 -7.0625 6.21875 -6.75 C 6.789062 -6.4375 7.238281 -6 7.5625 -5.4375 C 7.882812 -4.882812 8.046875 -4.265625 8.046875 -3.578125 C 8.046875 -2.890625 7.882812 -2.265625 7.5625 -1.703125 C 7.238281 -1.148438 6.789062 -0.71875 6.21875 -0.40625 C 5.644531 -0.09375 5.003906 0.0625 4.296875 0.0625 Z M 4.296875 -0.609375 C 4.859375 -0.609375 5.367188 -0.734375 5.828125 -0.984375 C 6.285156 -1.242188 6.644531 -1.601562 6.90625 -2.0625 C 7.164062 -2.519531 7.296875 -3.023438 7.296875 -3.578125 C 7.296875 -4.140625 7.164062 -4.644531 6.90625 -5.09375 C 6.644531 -5.550781 6.285156 -5.90625 5.828125 -6.15625 C 5.367188 -6.414062 4.859375 -6.546875 4.296875 -6.546875 C 3.734375 -6.546875 3.21875 -6.414062 2.75 -6.15625 C 2.289062 -5.90625 1.929688 -5.550781 1.671875 -5.09375 C 1.410156 -4.644531 1.28125 -4.140625 1.28125 -3.578125 C 1.28125 -3.023438 1.410156 -2.519531 1.671875 -2.0625 C 1.929688 -1.601562 2.289062 -1.242188 2.75 -0.984375 C 3.21875 -0.734375 3.734375 -0.609375 4.296875 -0.609375 Z M 4.296875 -0.609375 "/></g></g></g><g fill="#000b05" fill-opacity="1"><g transform="translate(215.614977, 190.124988)"><g><path d="M 3.84375 -7.15625 C 4.757812 -7.15625 5.476562 -6.9375 6 -6.5 C 6.519531 -6.070312 6.78125 -5.472656 6.78125 -4.703125 C 6.78125 -3.941406 6.519531 -3.34375 6 -2.90625 C 5.476562 -2.476562 4.757812 -2.265625 3.84375 -2.265625 L 1.921875 -2.265625 L 1.921875 0 L 1.171875 0 L 1.171875 -7.15625 Z M 3.828125 -2.921875 C 4.535156 -2.921875 5.078125 -3.078125 5.453125 -3.390625 C 5.828125 -3.703125 6.015625 -4.140625 6.015625 -4.703125 C 6.015625 -5.285156 5.828125 -5.734375 5.453125 -6.046875 C 5.078125 -6.359375 4.535156 -6.515625 3.828125 -6.515625 L 1.921875 -6.515625 L 1.921875 -2.921875 Z M 3.828125 -2.921875 "/></g></g></g><g fill="#000b05" fill-opacity="1"><g transform="translate(230.283916, 190.124988)"><g><path d="M 6.234375 -0.65625 L 6.234375 0 L 1.171875 0 L 1.171875 -7.15625 L 6.078125 -7.15625 L 6.078125 -6.515625 L 1.921875 -6.515625 L 1.921875 -3.953125 L 5.625 -3.953125 L 5.625 -3.3125 L 1.921875 -3.3125 L 1.921875 -0.65625 Z M 6.234375 -0.65625 "/></g></g></g><g fill="#000b05" fill-opacity="1"><g transform="translate(244.451574, 190.124988)"><g><path d="M 6.0625 0 L 4.421875 -2.296875 C 4.234375 -2.273438 4.039062 -2.265625 3.84375 -2.265625 L 1.921875 -2.265625 L 1.921875 0 L 1.171875 0 L 1.171875 -7.15625 L 3.84375 -7.15625 C 4.757812 -7.15625 5.476562 -6.9375 6 -6.5 C 6.519531 -6.070312 6.78125 -5.472656 6.78125 -4.703125 C 6.78125 -4.148438 6.632812 -3.679688 6.34375 -3.296875 C 6.0625 -2.910156 5.660156 -2.628906 5.140625 -2.453125 L 6.890625 0 Z M 3.828125 -2.921875 C 4.535156 -2.921875 5.078125 -3.078125 5.453125 -3.390625 C 5.828125 -3.703125 6.015625 -4.140625 6.015625 -4.703125 C 6.015625 -5.285156 5.828125 -5.734375 5.453125 -6.046875 C 5.078125 -6.359375 4.535156 -6.515625 3.828125 -6.515625 L 1.921875 -6.515625 L 1.921875 -2.921875 Z M 3.828125 -2.921875 "/></g></g></g></svg>